<svg width="60" height="60" viewBox="0 0 43 44" fill="none" xmlns="http://www.w3.org/2000/svg">
<circle cx="21.4953" cy="22.486" r="21.4953" fill="#15397F"/>
<path d="M30.0475 32.283L30.0486 32.2783C30.0486 32.2783 26.8849 27.2761 26.8828 27.2736C26.6321 26.8765 26.1122 26.766 25.7211 27.0125L23.4121 28.4718C22.5151 29.0362 21.7188 28.1744 20.2424 26.2904C19.2656 25.0439 18.1846 23.4204 17.3248 21.6714C16.7213 20.4443 16.2266 19.1871 17.166 18.5963C17.1685 18.5947 19.4817 17.1436 19.4818 17.1415L19.4841 17.1379C19.8995 16.8766 19.984 16.3513 19.7448 15.9721L19.7459 15.9674C19.7459 15.9674 16.4907 10.8211 16.4889 10.8181C16.2382 10.4211 15.7184 10.3109 15.3272 10.557L13.0029 12.0192C12.0009 12.8177 9.21147 17.0734 14.9257 26.3724C20.9453 36.169 26.3917 35.6 27.4675 34.8925C27.4675 34.8925 29.7843 33.4541 29.7847 33.4523L29.7872 33.4489C30.2026 33.1874 30.2865 32.6623 30.0475 32.283Z" fill="white"/>
<g opacity="0.05">
<mask id="mask0_1062_156" style="mask-type:alpha" maskUnits="userSpaceOnUse" x="0" y="0" width="43" height="44">
<circle cx="21.4953" cy="22.486" r="21.4953" fill="#15397F"/>
</mask>
<g mask="url(#mask0_1062_156)">
<path d="M-3.0708 45.2975L43.4292 2.74561L46.0613 29.505L27.1981 49.6843L-3.0708 45.2975Z" fill="white"/>
</g>
</g>
</svg>
