<svg width="15" height="28" viewBox="0 0 15 28" fill="none" xmlns="http://www.w3.org/2000/svg">
<path d="M12.2146 0.0036493C12.6858 0.00276938 13.1424 0.159625 13.5052 0.446988C13.7093 0.608805 13.8781 0.807541 14.0018 1.03181C14.1255 1.25607 14.2018 1.50146 14.2261 1.75393C14.2505 2.0064 14.2225 2.26097 14.1437 2.50308C14.065 2.74519 13.9371 2.97008 13.7673 3.16485L4.73361 13.4966L13.4447 23.8476C13.6122 24.0448 13.7372 24.2716 13.8127 24.5152C13.8882 24.7587 13.9126 25.0141 13.8845 25.2667C13.8564 25.5192 13.7763 25.764 13.6489 25.9869C13.5215 26.2098 13.3493 26.4064 13.1422 26.5655C12.9336 26.741 12.6892 26.8733 12.4245 26.9543C12.1599 27.0352 11.8805 27.063 11.6041 27.0358C11.3277 27.0087 11.0601 26.9272 10.8181 26.7965C10.5762 26.6658 10.3651 26.4887 10.1982 26.2763L0.45874 14.711C0.162157 14.3661 2.30642e-05 13.9334 2.31032e-05 13.487C2.31422e-05 13.0405 0.162157 12.6079 0.45874 12.263L10.541 0.697573C10.7433 0.464305 11.0002 0.279906 11.291 0.159339C11.5818 0.0387728 11.8982 -0.0145673 12.2146 0.0036493Z" fill="white"/>
</svg>
