<svg width="15" height="28" viewBox="0 0 15 28" fill="none" xmlns="http://www.w3.org/2000/svg">
<path d="M2.02073 27.0422C1.54958 27.0431 1.09298 26.8863 0.730202 26.5989C0.526019 26.4371 0.357239 26.2384 0.233526 26.0141C0.109813 25.7898 0.0335991 25.5444 0.00924873 25.292C-0.0151016 25.0395 0.0128907 24.7849 0.0916219 24.5428C0.170353 24.3007 0.298275 24.0758 0.468063 23.881L9.50175 13.5493L0.790697 3.19829C0.623198 3.00112 0.498115 2.77425 0.422636 2.53073C0.347156 2.2872 0.32277 2.03181 0.350878 1.77925C0.378985 1.52668 0.459032 1.28192 0.586418 1.05902C0.713805 0.836122 0.88602 0.639489 1.09316 0.480421C1.3018 0.304942 1.54612 0.172581 1.8108 0.0916447C2.07549 0.0107081 2.35482 -0.0170559 2.63126 0.0100936C2.9077 0.0372431 3.17528 0.118721 3.41722 0.249413C3.65916 0.380105 3.87023 0.557191 4.03718 0.769556L13.7766 12.3349C14.0732 12.6798 14.2353 13.1125 14.2353 13.5589C14.2353 14.0054 14.0732 14.438 13.7766 14.7829L3.69438 26.3483C3.49209 26.5816 3.23513 26.766 2.94434 26.8866C2.65355 27.0071 2.33712 27.0605 2.02073 27.0422Z" fill="white"/>
</svg>
